<svg xmlns="http://www.w3.org/2000/svg" width="150" height="150" viewBox="0 0 150 150"><defs><style>.cls-1{fill:#ff6b00;}</style></defs><g id="Layer_2" data-name="Layer 2"><path class="cls-1" d="M111.52,80.18,104.38,67A33,33,0,0,0,76.19,34.68v0c-.51-.08-1-.14-1.55-.19a33.19,33.19,0,0,0-3.47-.16V27H68v96h3.21V37.5c1,0,2.11,0,3.14.14h0a29.81,29.81,0,0,1,26.86,29.77v.4l7.48,13.82A1.72,1.72,0,0,1,107,82.8a5.86,5.86,0,0,0-5.85,5.85v11.43a3,3,0,0,1-3,3H89.27A4.27,4.27,0,0,0,85,107.38v6.74h3.21v-6.74a1.05,1.05,0,0,1,1.06-1.06h8.88a6.25,6.25,0,0,0,6.23-6.24V88.65A2.65,2.65,0,0,1,107,86a4.94,4.94,0,0,0,4.75-3.6A3,3,0,0,0,111.52,80.18Z"/><path class="cls-1" d="M51.54,93.2c-.73-.94-1.44-1.94-2.12-3L46.74,92c.73,1.09,1.48,2.15,2.24,3.15a8,8,0,0,1,1.48,3.23l3.14-.67A11.25,11.25,0,0,0,51.54,93.2Z"/><rect class="cls-1" x="50.65" y="106.07" width="3.21" height="8.04"/><path class="cls-1" d="M52.75,39.92l1.79,2.66a30.07,30.07,0,0,1,6.8-3.41l-1.06-3A32.8,32.8,0,0,0,52.75,39.92Z"/><path class="cls-1" d="M39.65,77.09a52,52,0,0,0,3,7.73l2.89-1.39a48.77,48.77,0,0,1-2.83-7.25Z"/><path class="cls-1" d="M41.33,67.41A30.51,30.51,0,0,1,42,61.08l-3.14-.68a33.58,33.58,0,0,0-.74,7c0,.46,0,.94,0,1.41l3.21-.17C41.34,68.23,41.33,67.82,41.33,67.41Z"/><path class="cls-1" d="M48.82,47.61l-2.4-2.13a32.67,32.67,0,0,0-4.74,7l2.86,1.45A29.92,29.92,0,0,1,48.82,47.61Z"/></g></svg>