<svg id="Layer_1" data-name="Layer 1" xmlns="http://www.w3.org/2000/svg" width="76" height="76" viewBox="0 0 76 76"><defs><style>.cls-1{fill:#0091bd;}</style></defs><title>Artboard 1</title><path class="cls-1" d="M76,45.13A30.87,30.87,0,0,0,53.73,15.47L55,11.83a5.42,5.42,0,0,0,.81.06,5.95,5.95,0,1,0-3.05-.84l-1.34,3.84A30.91,30.91,0,0,0,14.25,45.13a30.74,30.74,0,0,0,2.39,11.92l-5.25,1.13a5.94,5.94,0,1,0,.5,2.38V60.5l5.78-1.24a30.87,30.87,0,0,0,47.88,9,5.95,5.95,0,0,0,8.09-5.54,5.83,5.83,0,0,0-1.09-3.42A30.76,30.76,0,0,0,76,45.13ZM55.81,2.37a3.57,3.57,0,1,1-3.57,3.57A3.59,3.59,0,0,1,55.81,2.37ZM5.94,64.13a3.57,3.57,0,1,1,3.57-3.57A3.59,3.59,0,0,1,5.94,64.13ZM65.28,25a28.53,28.53,0,0,1,5.47,32.66,5.93,5.93,0,0,0-8.23,2.17L45.1,54.12c0-.22,0-.45,0-.68a6,6,0,0,0-2.9-5.1L53,17.71A28.45,28.45,0,0,1,65.28,25ZM39.19,49.87a3.57,3.57,0,1,1-3.57,3.57A3.58,3.58,0,0,1,39.19,49.87ZM16.62,45.13a28.51,28.51,0,0,1,28.5-28.51,28.83,28.83,0,0,1,5.51.53L40,47.56a5.42,5.42,0,0,0-.81-.06,6,6,0,0,0-2.24.44l-3-4.56a5.94,5.94,0,1,0-4.22,1.76,6,6,0,0,0,2.25-.44l3,4.56a5.9,5.9,0,0,0-1.73,4.18v.06L19,56.55A28.39,28.39,0,0,1,16.62,45.13Zm13.07-2.37a3.57,3.57,0,1,1,3.57-3.57A3.58,3.58,0,0,1,29.69,42.76ZM25,65.28a28.51,28.51,0,0,1-4.89-6.53l13.67-2.93a5.94,5.94,0,0,0,10.61.56l17.43,5.67a5.07,5.07,0,0,0,0,.68,5.9,5.9,0,0,0,1.73,4.19A28.48,28.48,0,0,1,25,65.28Zm42.72,1a3.57,3.57,0,1,1,3.57-3.57A3.58,3.58,0,0,1,67.69,66.3Z"/></svg>