<svg id="Layer_1" data-name="Layer 1" xmlns="http://www.w3.org/2000/svg" width="76" height="76" viewBox="0 0 76 76"><defs><style>.cls-1{fill:#ffc700;}</style></defs><title>Artboard 3</title><path class="cls-1" d="M68.88,59.38h-9.5V52.25A2.38,2.38,0,0,0,57,49.88H39.68L55.25,34.31a7.12,7.12,0,1,0,0-11.62L43.81,11.25a7.12,7.12,0,1,0-11.62,0L20.75,22.69A7.13,7.13,0,0,0,10,31.15l2.21-.89a4.68,4.68,0,0,1-.34-1.76,4.74,4.74,0,1,1,3,4.41L14,35.12a7.25,7.25,0,0,0,2.64.5,7.12,7.12,0,0,0,5.81-11.25L33.87,12.93a7.12,7.12,0,0,0,8.26,0L53.57,24.37a7.12,7.12,0,0,0,0,8.26L36.32,49.88H19a2.38,2.38,0,0,0-2.38,2.37v7.13H7.12a2.37,2.37,0,0,0-2.37,2.37V76h66.5V61.75A2.37,2.37,0,0,0,68.88,59.38ZM38,11.88a4.75,4.75,0,1,1,4.75-4.76A4.76,4.76,0,0,1,38,11.88ZM64.12,28.5a4.75,4.75,0,1,1-4.74-4.75A4.75,4.75,0,0,1,64.12,28.5ZM19,52.25H57v7.13H19ZM68.88,73.62H7.12V61.75H68.88Z"/></svg>